<svg width="70" height="70" viewBox="0 0 70 70" fill="none" xmlns="http://www.w3.org/2000/svg">
<rect width="70" height="70" rx="10" fill="white"/>
<mask id="mask0_176_8" style="mask-type:alpha" maskUnits="userSpaceOnUse" x="0" y="0" width="70" height="70">
<rect width="70" height="70" rx="10" fill="url(#paint0_linear_176_8)"/>
</mask>
<g mask="url(#mask0_176_8)">
<path d="M4.45 44.241C-8.79286 51.3121 -11 60.9086 -11 60.9086V70H92V55.8578C92 55.8578 83.9071 30.0988 63.3071 44.241C42.7071 58.3832 47.8571 45.2511 33.8786 46.7664C19.9 48.2816 17.6929 37.1699 4.45 44.241Z" fill="#EBEBEB"/>
</g>
<path d="M35.3918 10.2386C20.0535 10.5908 13.6756 19.6131 12.4039 24.0802C16.1994 30.5755 27.8107 31.0581 33.1419 30.4875C36.2721 32.6884 40.6741 32.933 41.9457 32.0526C42.9631 31.3483 41.098 29.5093 40.0382 28.6778C46.3966 25.303 52.4125 25.6454 54.7602 31.0255C56.6384 35.3296 52.3799 38.2316 50.0159 39.1446C39.1383 39.6141 37.1036 40.8728 37.446 41.4434C38.1978 44.2019 44.5869 45.6868 46.7879 46.7746C50.192 48.4571 48.8584 51.5515 47.7661 52.8884C41.7501 58.5131 41.8153 59.0511 42.0436 59.5402C42.9826 61.927 48.7932 58.187 51.5811 56.0186C60.6588 48.0756 61.4935 38.1664 60.7762 34.2047C60.6197 22.9357 51.9723 15.5862 47.6682 13.32C50.0551 12.0679 50.3909 11.2658 50.2605 11.0212C45.8097 7.59748 40.723 10.7277 39.06 10.4343C37.7297 10.1995 36.0602 10.206 35.3918 10.2386Z" fill="#8C8C8C"/>
<circle cx="24.3377" cy="18.7969" r="1.76077" fill="white"/>
<path d="M22.284 47.5954C36.018 42.6652 43.2339 47.628 45.1251 50.7256C44.8903 53.7776 39.3863 56.4644 36.6636 57.4264C35.7636 58.6785 34.0387 59.8719 33.2888 60.3121C26.8326 63.1684 28.5771 60.4262 30.2563 58.698C24.5045 58.9328 19.5124 56.0895 17.7353 54.6385C11.0444 49.7083 9.43687 39.6067 9.46948 35.1722C9.71403 25.5857 12.9421 32.9712 13.3823 34.4385C13.7325 35.6058 17.1158 35.433 18.9092 35.1722C23.8393 34.82 21.5503 37.3731 19.7896 38.6937C13.0204 45.7368 18.632 47.5628 22.284 47.5954Z" fill="#8C8C8C"/>
<circle cx="36.6635" cy="49.9038" r="1.17385" fill="white"/>
<defs>
<linearGradient id="paint0_linear_176_8" x1="-1.81679" y1="1.81679" x2="67.542" y2="64.9237" gradientUnits="userSpaceOnUse">
<stop stop-color="white"/>
<stop offset="1" stop-color="#D8EBFF"/>
</linearGradient>
</defs>
</svg>
