<svg width="56" height="56" viewBox="0 0 56 56" fill="none" xmlns="http://www.w3.org/2000/svg">
<rect width="56" height="56" rx="10" fill="url(#paint0_linear_1_1852)"/>
<mask id="mask0_1_1852" style="mask-type:alpha" maskUnits="userSpaceOnUse" x="0" y="0" width="56" height="56">
<rect width="56" height="56" rx="10" fill="url(#paint1_linear_1_1852)"/>
</mask>
<g mask="url(#mask0_1_1852)">
<path d="M3.55995 35.3928C-7.03433 41.0497 -8.80005 48.7269 -8.80005 48.7269V56H73.5999V44.6862C73.5999 44.6862 67.1257 24.079 50.6457 35.3928C34.1657 46.7066 38.2857 36.2009 27.1028 37.4131C15.9199 38.6253 14.1542 29.7359 3.55995 35.3928Z" fill="#C1DFFF"/>
</g>
<path d="M28.3134 8.19106C16.0427 8.47278 10.9404 15.6906 9.9231 19.2643C12.9594 24.4606 22.2485 24.8466 26.5135 24.3901C29.0177 26.1509 32.5392 26.3465 33.5565 25.6422C34.3704 25.0788 32.8783 23.6076 32.0305 22.9424C37.1172 20.2425 41.93 20.5164 43.8081 24.8205C45.3107 28.2638 41.9039 30.5854 40.0127 31.3158C31.3106 31.6915 29.6828 32.6984 29.9567 33.1549C30.5582 35.3617 35.6695 36.5496 37.4302 37.4198C40.1536 38.7658 39.0867 41.2414 38.2128 42.3109C33.4 46.8106 33.4522 47.241 33.6348 47.6323C34.3861 49.5417 39.0345 46.5497 41.2648 44.8151C48.527 38.4606 49.1948 30.5333 48.6209 27.3639C48.4957 18.3487 41.5778 12.4691 38.1345 10.6561C40.044 9.65445 40.3127 9.01275 40.2083 8.81711C36.6477 6.07813 32.5783 8.58234 31.248 8.34757C30.1837 8.15975 28.8481 8.16497 28.3134 8.19106Z" fill="#52A5FC"/>
<circle cx="19.4701" cy="15.0378" r="1.40862" fill="white"/>
<path d="M17.8272 38.0764C28.8144 34.1323 34.5871 38.1025 36.1001 40.5806C35.9123 43.0222 31.509 45.1717 29.3309 45.9412C28.6109 46.9429 27.231 47.8976 26.631 48.2497C21.4661 50.5348 22.8617 48.341 24.2051 46.9585C19.6036 47.1463 15.6099 44.8717 14.1883 43.7109C8.83551 39.7667 7.5495 31.6855 7.57558 28.1378C7.77122 20.4687 10.3537 26.3771 10.7058 27.5509C10.986 28.4847 13.6926 28.3465 15.1273 28.1378C19.0715 27.8561 17.2403 29.8986 15.8316 30.9551C10.4163 36.5895 14.9056 38.0503 17.8272 38.0764Z" fill="#52A5FC"/>
<circle cx="29.3307" cy="39.9233" r="0.939077" fill="white"/>
<defs>
<linearGradient id="paint0_linear_1_1852" x1="-1.45343" y1="1.45343" x2="54.0336" y2="51.9389" gradientUnits="userSpaceOnUse">
<stop stop-color="white"/>
<stop offset="1" stop-color="#D8EBFF"/>
</linearGradient>
<linearGradient id="paint1_linear_1_1852" x1="-1.45343" y1="1.45343" x2="54.0336" y2="51.9389" gradientUnits="userSpaceOnUse">
<stop stop-color="white"/>
<stop offset="1" stop-color="#D8EBFF"/>
</linearGradient>
</defs>
</svg>
